
<svg version="1.1" xmlns="http://www.w3.org/2000/svg" width="240" height="176">
<path d="M0 0 C13.12268058 3.87203558 27.42198802 12.65715111 34.4375 24.8125 C36.51548178 29.38762726 36.72229493 34.06151835 36 39 C35.64421875 39.67804687 35.2884375 40.35609375 34.921875 41.0546875 C33.53571905 43.97971149 34.71356373 46.23137907 35.46875 49.2421875 C36.97933436 57.08389748 37.26253227 65.7696573 33.453125 72.97265625 C27.79274723 80.8697962 19.52405478 86.13391903 10 88 C8.00242998 88.11670586 6.00093724 88.17499414 4 88.1875 C2.96875 88.20167969 1.9375 88.21585937 0.875 88.23046875 C-2.04957725 87.99602574 -3.62448047 87.69679966 -6 86 C-8.80352081 81.61949873 -9.22190537 77.30692735 -8.36328125 72.25 C-7.10101236 67.21277381 -5.50952148 62.28945939 -3.6015625 57.4609375 C-2.6411201 53.92206787 -2.6411201 53.92206787 -4.59765625 50.67578125 C-5.40050284 49.54117159 -6.22327252 48.42047065 -7.0625 47.3125 C-7.91702709 46.08417863 -8.7646461 44.85102404 -9.60546875 43.61328125 C-10.01974121 43.00436035 -10.43401367 42.39543945 -10.86083984 41.76806641 C-16.92869743 32.35027288 -21.72273966 18.07995996 -19.60546875 6.84375 C-16.64203155 -2.18039425 -7.9131796 -1.12237956 0 0 Z " fill="#58C4CE" transform="translate(81,0)"/>
<path d="M0 0 C4.39442562 8.13782523 2.57588151 16.34797474 0.125 24.875 C-2.49696725 33.10675765 -6.22701063 41.87614961 -12.12890625 48.2734375 C-14.58253648 50.86108643 -14.58253648 50.86108643 -14.25390625 53.65234375 C-13.94324219 54.46832031 -13.63257813 55.28429688 -13.3125 56.125 C-12.99152344 57.01316406 -12.67054688 57.90132812 -12.33984375 58.81640625 C-11.98019531 59.76386719 -11.62054688 60.71132813 -11.25 61.6875 C-9.17918766 67.80924452 -8.27691709 73.69692229 -9.3125 80.125 C-11.6677015 84.80260075 -11.6677015 84.80260075 -14.3125 86.125 C-24.18084484 87.30180433 -32.26339919 84.58640468 -41.3125 81.125 C-41.3125 80.465 -41.3125 79.805 -41.3125 79.125 C-41.89644531 79.06957031 -42.48039063 79.01414062 -43.08203125 78.95703125 C-46.33245575 77.74452614 -47.21532916 75.73533402 -49 72.8125 C-49.60199219 71.84699219 -50.20398438 70.88148437 -50.82421875 69.88671875 C-54.04384679 63.91223837 -54.35193273 56.62641432 -52.828125 50.02734375 C-52.54195313 49.14755859 -52.54195313 49.14755859 -52.25 48.25 C-50.9407768 43.88592268 -51.91028942 41.33163175 -53.3125 37.125 C-54.06114357 30.21538801 -53.41174828 24.81716269 -49.3125 19.125 C-39.16873931 6.72949932 -16.47284687 -9.32425295 0 0 Z " fill="#EE5B70" transform="translate(176.3125,1.875)"/>
<path d="M0 0 C4.62 0 9.24 0 14 0 C15.65 9.9 17.3 19.8 19 30 C20.71711984 24.02443301 20.71711984 24.02443301 21.81640625 18.046875 C21.94080078 17.180625 22.06519531 16.314375 22.19335938 15.421875 C22.31517578 14.54015625 22.43699219 13.6584375 22.5625 12.75 C22.81134735 10.97361273 23.06254808 9.19755311 23.31640625 7.421875 C23.42412354 6.64424805 23.53184082 5.86662109 23.64282227 5.06542969 C24 3 24 3 25 0 C29.29 0 33.58 0 38 0 C38 18.48 38 36.96 38 56 C35.03 56 32.06 56 29 56 C28.505 44.12 28.505 44.12 28 32 C26.68 39.92 25.36 47.84 24 56 C21.03 56 18.06 56 15 56 C13.32220351 50.56539834 12.26191554 45.17567387 11.375 39.5625 C10.92125 36.736875 10.4675 33.91125 10 31 C9.67 39.25 9.34 47.5 9 56 C6.03 56 3.06 56 0 56 C0 37.52 0 19.04 0 0 Z " fill="#000000" transform="translate(104,96)"/>
<path d="M0 0 C2.97 0 5.94 0 9 0 C9.48174737 3.62466179 9.95991383 7.24978778 10.4375 10.875 C10.57220703 11.88820313 10.70691406 12.90140625 10.84570312 13.9453125 C11.67919176 20.2879577 12.40752657 26.63024836 13 33 C13.08564209 32.10692139 13.17128418 31.21384277 13.25952148 30.29370117 C13.5791576 26.97798907 13.90192081 23.66261232 14.22680664 20.34741211 C14.36673306 18.91296362 14.50541469 17.47839313 14.64282227 16.04370117 C14.84063214 13.98062273 15.0429257 11.91802556 15.24609375 9.85546875 C15.36654053 8.61434326 15.4869873 7.37321777 15.61108398 6.09448242 C16 3 16 3 17 0 C19.97 0 22.94 0 26 0 C27.4297815 2.859563 27.44653331 5.57717082 27.75390625 8.7578125 C27.8732251 9.97098145 27.99254395 11.18415039 28.11547852 12.43408203 C28.26299561 13.98208496 28.4105127 15.53008789 28.5625 17.125 C29.036875 22.03375 29.51125 26.9425 30 32 C31.32 21.44 32.64 10.88 34 0 C36.97 0 39.94 0 43 0 C42.46869122 5.2430973 41.93555351 10.48600463 41.40087891 15.72875977 C41.22006442 17.50410198 41.03970924 19.27949105 40.85986328 21.05493164 C39.67816208 32.71680413 38.40918185 44.3633442 37 56 C32.71 56 28.42 56 24 56 C22.515 47.585 22.515 47.585 21 39 C20.34 44.61 19.68 50.22 19 56 C14.71 56 10.42 56 6 56 C4.91657779 53.83315559 4.70554186 52.29107452 4.42749023 49.89257812 C4.32746201 49.04409302 4.22743378 48.19560791 4.12437439 47.32141113 C3.96806297 45.94028137 3.96806297 45.94028137 3.80859375 44.53125 C3.69902847 43.58117065 3.5894632 42.63109131 3.47657776 41.65222168 C3.24521449 39.63490663 3.01585624 37.6173608 2.78833008 35.59960938 C2.44197373 32.53952569 2.0856605 29.48071583 1.72851562 26.421875 C1.50459633 24.45840303 1.2812708 22.49486324 1.05859375 20.53125 C0.95236191 19.62669067 0.84613007 18.72213135 0.73667908 17.79016113 C0.07516254 11.82409961 -0.09147665 6.00302878 0 0 Z " fill="#000000" transform="translate(0,96)"/>
<path d="M0 0 C5.34090187 3.14801333 9.15988432 7.56264431 11.375 13.34765625 C13.20808662 21.1268176 13.25071812 29.79199602 9.453125 36.97265625 C3.79274723 44.8697962 -4.47594522 50.13391903 -14 52 C-15.99757002 52.11670586 -17.99906276 52.17499414 -20 52.1875 C-21.03125 52.20167969 -22.0625 52.21585938 -23.125 52.23046875 C-26.04957725 51.99602574 -27.62448047 51.69679966 -30 50 C-32.80352081 45.61949873 -33.22190537 41.30692735 -32.36328125 36.25 C-31.41028874 32.44697602 -30.21297859 28.72759202 -29 25 C-28.70480469 23.77667969 -28.40960938 22.55335937 -28.10546875 21.29296875 C-26.91263749 17.73976469 -25.75851663 16.44222055 -23 14 C-21.89867072 12.53418318 -20.81542752 11.05461573 -19.75 9.5625 C-14.94222474 3.3503213 -8.37279741 -2.51508449 0 0 Z " fill="#FDCB29" transform="translate(105,36)"/>
<path d="M0 0 C3.96 0 7.92 0 12 0 C15.06059995 7.49846989 16.97191113 15.1673809 19 23 C19.33 15.41 19.66 7.82 20 0 C22.97 0 25.94 0 29 0 C29 18.48 29 36.96 29 56 C25.7 56 22.4 56 19 56 C17.87240129 52.16742629 16.74839485 48.33380784 15.625 44.5 C15.30789062 43.42234375 14.99078125 42.3446875 14.6640625 41.234375 C14.3546875 40.17734375 14.0453125 39.1203125 13.7265625 38.03125 C13.44377441 37.06767578 13.16098633 36.10410156 12.86962891 35.11132812 C11.83990746 31.42722645 10.92777189 27.71108754 10 24 C9.67 34.56 9.34 45.12 9 56 C6.03 56 3.06 56 0 56 C0 37.52 0 19.04 0 0 Z " fill="#000000" transform="translate(180,96)"/>
<path d="M0 0 C3.79269567 1.74431995 6.04579996 4.04579996 9 7 C14.5242203 10.97743862 18.1464728 12.45690181 25 12 C27.41842052 11.14760588 29.66668434 10.07691492 32 9 C32.99 9 33.98 9 35 9 C35.81604999 10.9151579 36.62770632 12.83218834 37.4375 14.75 C37.88996094 15.81734375 38.34242188 16.8846875 38.80859375 17.984375 C40.58112072 22.47090228 41.17679608 26.09994069 41.25 30.9375 C41.27578125 31.95714844 41.3015625 32.97679687 41.328125 34.02734375 C40.95299808 37.42581503 40.0156503 39.2651735 38 42 C31.88632078 45.05683961 24.00556835 43.2241701 17.7956543 41.20947266 C14.84438632 40.18591558 11.91766869 39.11604813 9 38 C9 37.34 9 36.68 9 36 C8.41605469 35.94457031 7.83210937 35.88914063 7.23046875 35.83203125 C3.98004425 34.61952614 3.09717084 32.61033402 1.3125 29.6875 C0.71050781 28.72199219 0.10851562 27.75648437 -0.51171875 26.76171875 C-3.88016026 20.51109369 -4.01992614 13.127143 -2.328125 6.28125 C-1.61482561 4.15481032 -0.85922566 2.07134758 0 0 Z " fill="#7CC55E" transform="translate(126,45)"/>
<path d="M0 0 C3.3952447 2.31493956 4.79119991 4.25115552 6.75 7.875 C7.29675505 10.85388174 7.28835831 13.75911636 7.24609375 16.78125 C7.24754898 17.62417603 7.24900421 18.46710205 7.25050354 19.33557129 C7.24884992 21.11063101 7.23734902 22.88570587 7.21655273 24.66064453 C7.18758739 27.3668349 7.19595687 30.07106474 7.20898438 32.77734375 C7.20274631 34.50782195 7.19435483 36.23829401 7.18359375 37.96875 C7.18652939 38.77203735 7.18946503 39.57532471 7.19248962 40.4029541 C7.09786519 46.07996909 6.06650142 50.38690588 2.0625 54.6875 C-2.67871772 57.12217937 -6.91859912 57.14128018 -12 56.125 C-14.95786208 54.98736074 -16.97831376 54.05931369 -19.25 51.875 C-20.15332125 49.16503626 -20.38485322 47.54630237 -20.41113281 44.75830078 C-20.42074036 43.93379425 -20.4303479 43.10928772 -20.44024658 42.25979614 C-20.44449646 41.37226654 -20.44874634 40.48473694 -20.453125 39.5703125 C-20.45882507 38.65418182 -20.46452515 37.73805115 -20.47039795 36.79415894 C-20.47984327 34.85578566 -20.48638007 32.91739636 -20.49023438 30.97900391 C-20.49994011 28.01826898 -20.53096786 25.05822827 -20.5625 22.09765625 C-20.5690303 20.21354578 -20.57428066 18.32943036 -20.578125 16.4453125 C-20.5904718 15.56183136 -20.6028186 14.67835022 -20.61553955 13.76809692 C-20.59826396 8.98559924 -20.40375994 5.73260737 -17.25 1.875 C-11.57468558 -1.95253763 -6.32323434 -2.18881189 0 0 Z M-9.91259766 8.91430664 C-11.91923414 11.85612804 -11.67853583 14.80737243 -11.6484375 18.24609375 C-11.65130768 18.9648317 -11.65417786 19.68356964 -11.65713501 20.42408752 C-11.65917476 21.94297067 -11.65365101 23.46188013 -11.64111328 24.98071289 C-11.6250802 27.30089388 -11.64095113 29.61932686 -11.66015625 31.93945312 C-11.65817334 33.4166705 -11.65432867 34.89388679 -11.6484375 36.37109375 C-11.65451019 37.06287216 -11.66058289 37.75465057 -11.6668396 38.46739197 C-11.60748595 42.55151096 -11.11546628 44.90092866 -8.25 47.875 C-6.6 47.215 -4.95 46.555 -3.25 45.875 C-3.20063842 40.78468245 -3.16429895 35.69450357 -3.14013672 30.60400391 C-3.13006624 28.87155735 -3.11640911 27.13912784 -3.09912109 25.40673828 C-3.07491838 22.91955361 -3.06352761 20.43259325 -3.0546875 17.9453125 C-3.04436493 17.16817902 -3.03404236 16.39104553 -3.02340698 15.59036255 C-3.02300729 13.68374507 -3.1276786 11.77768964 -3.25 9.875 C-3.91 9.215 -4.57 8.555 -5.25 7.875 C-8.15280707 7.60996695 -8.15280707 7.60996695 -9.91259766 8.91430664 Z " fill="#000000" transform="translate(168.25,96.125)"/>
<path d="M0 0 C8.25 0 16.5 0 25 0 C25 2.97 25 5.94 25 9 C20.05 9 15.1 9 10 9 C10 13.62 10 18.24 10 23 C13.96 23 17.92 23 22 23 C22 25.97 22 28.94 22 32 C18.04 32 14.08 32 10 32 C10 36.95 10 41.9 10 47 C14.95 47 19.9 47 25 47 C25 49.97 25 52.94 25 56 C16.75 56 8.5 56 0 56 C0 37.52 0 19.04 0 0 Z " fill="#000000" transform="translate(47,96)"/>
<path d="M0 0 C3.3 0 6.6 0 10 0 C10 15.51 10 31.02 10 47 C14.62 47 19.24 47 24 47 C24 49.97 24 52.94 24 56 C16.08 56 8.16 56 0 56 C0 37.52 0 19.04 0 0 Z " fill="#000000" transform="translate(77,96)"/>
<path d="M0 0 C8.91 0 17.82 0 27 0 C27 2.97 27 5.94 27 9 C24.03 9 21.06 9 18 9 C18 24.51 18 40.02 18 56 C15.03 56 12.06 56 9 56 C9 40.49 9 24.98 9 9 C6.03 9 3.06 9 0 9 C0 6.03 0 3.06 0 0 Z " fill="#000000" transform="translate(213,96)"/>
<path d="M0 0 C6.91326303 2.35345124 11.76270326 8.1046748 16.125 13.75 C17 16 17 16 16.5625 18.1875 C13.62433078 21.5957763 9.92964566 21.89670604 5.625 22.375 C-1.49515889 21.63843184 -6.91086366 17.85243232 -12 13 C-13.875 10.1875 -13.875 10.1875 -15 8 C-10.37011015 2.24392073 -7.91683311 -0.67091806 0 0 Z " fill="#93503F" transform="translate(142,36)"/>
<path d="M0 0 C2.97209662 2.05603944 5.50184405 4.39553955 8 7 C5.4897094 12.59893247 1.21049982 16.4426024 -3.75 19.9375 C-10.75328645 22.22703595 -18.17194673 21.61499913 -25 19 C-25.66 18.34 -26.32 17.68 -27 17 C-26.01 16.67 -25.02 16.34 -24 16 C-22.61558 14.03501678 -21.28796166 12.02951535 -20 10 C-15.61899105 3.58495118 -8.20847505 -2.58882675 0 0 Z " fill="#7EA138" transform="translate(105,36)"/>
<path d="M0 0 C2.31 0 4.62 0 7 0 C9.42130331 3.63195496 9.21022785 5.38349348 9.125 9.6875 C9.10695313 10.86699219 9.08890625 12.04648438 9.0703125 13.26171875 C9.03550781 14.61716797 9.03550781 14.61716797 9 16 C6.03 16 3.06 16 0 16 C0 10.72 0 5.44 0 0 Z M4 3 C5 7 5 7 5 7 Z " fill="#EE5B70" transform="translate(44,160)"/>
<path d="M0 0 C2.31 0 4.62 0 7 0 C7 0.99 7 1.98 7 3 C5.68 3 4.36 3 3 3 C4.65 3.33 6.3 3.66 8 4 C8 7.96 8 11.92 8 16 C1.84765625 16.09765625 1.84765625 16.09765625 0 16 C-1 15 -1 15 -1.1328125 12.12890625 C-1.13023438 10.95199219 -1.12765625 9.77507812 -1.125 8.5625 C-1.12757812 7.38816406 -1.13015625 6.21382812 -1.1328125 5.00390625 C-1 2 -1 2 0 0 Z M3 9 C4 13 4 13 4 13 Z " fill="#EE5B70" transform="translate(126,160)"/>
<path d="M0 0 C2.31 0 4.62 0 7 0 C8 1 8 1 8.09765625 4.37890625 C8.09098369 5.77347077 8.07902532 7.16801743 8.0625 8.5625 C8.05798828 9.27341797 8.05347656 9.98433594 8.04882812 10.71679688 C8.03700864 12.47790013 8.01907263 14.23896036 8 16 C7.4225 15.814375 6.845 15.62875 6.25 15.4375 C3.69606643 14.7761831 3.69606643 14.7761831 0 16 C0 10.72 0 5.44 0 0 Z M3 3 C4 7 4 7 4 7 Z " fill="#EF5B70" transform="translate(188,160)"/>
<path d="M0 0 C1.65 0 3.3 0 5 0 C5.66 5.28 6.32 10.56 7 16 C5.68 16 4.36 16 3 16 C3 15.34 3 14.68 3 14 C2.34 14 1.68 14 1 14 C1 14.66 1 15.32 1 16 C-0.32 15.67 -1.64 15.34 -3 15 C-2.69163768 12.87439563 -2.37818386 10.74952935 -2.0625 8.625 C-1.88847656 7.44164062 -1.71445313 6.25828125 -1.53515625 5.0390625 C-1 2 -1 2 0 0 Z " fill="#EE5B70" transform="translate(151,160)"/>
<path d="M0 0 C1.65 0 3.3 0 5 0 C6.19088986 5.38027025 7.2919519 10.45291384 7 16 C6.01 16 5.02 16 4 16 C4 15.34 4 14.68 4 14 C3.01 14 2.02 14 1 14 C1 14.66 1 15.32 1 16 C0.01 16 -0.98 16 -2 16 C-1.85833643 14.08302063 -1.71150416 12.16642277 -1.5625 10.25 C-1.48128906 9.18265625 -1.40007812 8.1153125 -1.31640625 7.015625 C-1.05909227 4.56320038 -0.68187782 2.36078709 0 0 Z M2 7 C3 10 3 10 3 10 Z " fill="#EE5B70" transform="translate(179,160)"/>
<path d="M0 0 C2.31 0 4.62 0 7 0 C8 1 8 1 8.1328125 4.125 C8.13023437 5.40375 8.12765625 6.6825 8.125 8 C8.12757813 9.27875 8.13015625 10.5575 8.1328125 11.875 C8 15 8 15 7 16 C4.69 16 2.38 16 0 16 C0 10.72 0 5.44 0 0 Z M3 3 C3 6.3 3 9.6 3 13 C3.66 13 4.32 13 5 13 C5 9.7 5 6.4 5 3 C4.34 3 3.68 3 3 3 Z " fill="#EF5B71" transform="translate(139,160)"/>
<path d="M0 0 C3 0.125 3 0.125 4 1.125 C4.09909302 3.45660055 4.12970504 5.79129942 4.125 8.125 C4.12757812 9.40375 4.13015625 10.6825 4.1328125 12 C4 15.125 4 15.125 3 16.125 C0 16.25 0 16.25 -3 16.125 C-4 15.125 -4 15.125 -4.1328125 12 C-4.13023438 10.72125 -4.12765625 9.4425 -4.125 8.125 C-4.12757812 6.84625 -4.13015625 5.5675 -4.1328125 4.25 C-3.95919858 0.16496661 -3.95919858 0.16496661 0 0 Z M0 3.125 C-1.20561184 4.10767859 -1.20561184 4.10767859 -1.09765625 5.97265625 C-1.08605469 6.70355469 -1.07445313 7.43445313 -1.0625 8.1875 C-1.041875 9.486875 -1.02125 10.78625 -1 12.125 C-0.01 12.62 -0.01 12.62 1 13.125 C1 9.825 1 6.525 1 3.125 C0.67 3.125 0.34 3.125 0 3.125 Z " fill="#EF5B70" transform="translate(97,159.875)"/>
<path d="M0 0 C3 0.125 3 0.125 4 1.125 C4.09909302 3.45660055 4.12970504 5.79129942 4.125 8.125 C4.12757812 9.40375 4.13015625 10.6825 4.1328125 12 C4 15.125 4 15.125 3 16.125 C0 16.25 0 16.25 -3 16.125 C-4 15.125 -4 15.125 -4.1328125 12 C-4.13023438 10.72125 -4.12765625 9.4425 -4.125 8.125 C-4.12757812 6.84625 -4.13015625 5.5675 -4.1328125 4.25 C-3.95919858 0.16496661 -3.95919858 0.16496661 0 0 Z M0 3.125 C-1.23267348 4.13336062 -1.23267348 4.13336062 -1.09765625 6.19140625 C-1.08605469 7.01511719 -1.07445313 7.83882812 -1.0625 8.6875 C-1.05347656 9.51378906 -1.04445313 10.34007812 -1.03515625 11.19140625 C-1.02355469 11.82949219 -1.01195313 12.46757812 -1 13.125 C-0.34 13.125 0.32 13.125 1 13.125 C1 9.825 1 6.525 1 3.125 C0.67 3.125 0.34 3.125 0 3.125 Z " fill="#EF5B71" transform="translate(107,159.875)"/>
<path d="M0 0 C0.99 0 1.98 0 3 0 C3 1.98 3 3.96 3 6 C3.66 6 4.32 6 5 6 C5 4.02 5 2.04 5 0 C5.99 0 6.98 0 8 0 C8 5.28 8 10.56 8 16 C7.01 16 6.02 16 5 16 C5 14.02 5 12.04 5 10 C4.34 10 3.68 10 3 10 C3 11.98 3 13.96 3 16 C2.01 16 1.02 16 0 16 C0 10.72 0 5.44 0 0 Z " fill="#EF5B71" transform="translate(83,160)"/>
<path d="M0 0 C1.98 0 3.96 0 6 0 C6.33 1.65 6.66 3.3 7 5 C6.01 5 5.02 5 4 5 C4 5.66 4 6.32 4 7 C4.66 7 5.32 7 6 7 C7.4783226 9.95664519 7.06032783 12.74229737 7 16 C4.69 16 2.38 16 0 16 C-0.33 14.35 -0.66 12.7 -1 11 C0.32 11.33 1.64 11.66 3 12 C2.319375 11.13375 1.63875 10.2675 0.9375 9.375 C-1 6 -1 6 -0.75 2.625 C-0.5025 1.75875 -0.255 0.8925 0 0 Z M3 3 C4 5 4 5 4 5 Z " fill="#EC5C70" transform="translate(64,160)"/>
<path d="M0 0 C2.64 0 5.28 0 8 0 C8 0.99 8 1.98 8 3 C6.68 3 5.36 3 4 3 C4 3.99 4 4.98 4 6 C4.99 6 5.98 6 7 6 C7 7.32 7 8.64 7 10 C6.01 10 5.02 10 4 10 C4 10.99 4 11.98 4 13 C5.32 13 6.64 13 8 13 C8 13.99 8 14.98 8 16 C5.36 16 2.72 16 0 16 C0 10.72 0 5.44 0 0 Z " fill="#EF5B71" transform="translate(54,160)"/>
<path d="M0 0 C1.4540625 0.0309375 1.4540625 0.0309375 2.9375 0.0625 C3.2675 2.0425 3.5975 4.0225 3.9375 6.0625 C2.9475 6.0625 1.9575 6.0625 0.9375 6.0625 C0.6075 5.4025 0.2775 4.7425 -0.0625 4.0625 C-0.0625 6.7025 -0.0625 9.3425 -0.0625 12.0625 C0.2675 11.4025 0.5975 10.7425 0.9375 10.0625 C1.9275 10.0625 2.9175 10.0625 3.9375 10.0625 C3.6075 12.0425 3.2775 14.0225 2.9375 16.0625 C0.6275 16.0625 -1.6825 16.0625 -4.0625 16.0625 C-4.08935095 13.58326199 -4.10926547 11.1043116 -4.125 8.625 C-4.13756836 7.56442383 -4.13756836 7.56442383 -4.15039062 6.48242188 C-4.15903588 4.67556441 -4.11470011 2.86862397 -4.0625 1.0625 C-3.0625 0.0625 -3.0625 0.0625 0 0 Z " fill="#EE5B70" transform="translate(172.0625,159.9375)"/>
<path d="M0 0 C3 0.125 3 0.125 4 1.125 C4.04063832 2.79117115 4.042721 4.45888095 4 6.125 C3.01 6.125 2.02 6.125 1 6.125 C1 5.135 1 4.145 1 3.125 C0.34 3.125 -0.32 3.125 -1 3.125 C-1 6.425 -1 9.725 -1 13.125 C-0.34 13.125 0.32 13.125 1 13.125 C1 12.135 1 11.145 1 10.125 C1.99 10.125 2.98 10.125 4 10.125 C4.042721 11.79111905 4.04063832 13.45882885 4 15.125 C3 16.125 3 16.125 0 16.25 C-3 16.125 -3 16.125 -4 15.125 C-4.09909302 12.79339945 -4.12970504 10.45870058 -4.125 8.125 C-4.12757812 6.84625 -4.13015625 5.5675 -4.1328125 4.25 C-3.95919858 0.16496661 -3.95919858 0.16496661 0 0 Z " fill="#EF5B71" transform="translate(77,159.875)"/>
<path d="M0 0 C2.31 0 4.62 0 7 0 C8 1 8 1 8.09765625 2.84765625 C8.04882812 5.92382812 8.04882812 5.92382812 8 9 C7.0409375 9.3403125 7.0409375 9.3403125 6.0625 9.6875 C3.72806339 10.85250896 3.72806339 10.85250896 3.25 13.625 C3.1675 14.40875 3.085 15.1925 3 16 C2.01 16 1.02 16 0 16 C0 10.72 0 5.44 0 0 Z M3 3 C3.33 4.32 3.66 5.64 4 7 C4 5.68 4 4.36 4 3 C3.67 3 3.34 3 3 3 Z " fill="#EE5B70" transform="translate(35,160)"/>
<path d="M0 0 C1.32 0 2.64 0 4 0 C4.33 0.66 4.66 1.32 5 2 C5.33 1.34 5.66 0.68 6 0 C7.32 0 8.64 0 10 0 C9.01 5.28 8.02 10.56 7 16 C5.68 16 4.36 16 3 16 C2.86722656 15.26394531 2.73445312 14.52789062 2.59765625 13.76953125 C2.42105469 12.79371094 2.24445313 11.81789062 2.0625 10.8125 C1.80146484 9.36810547 1.80146484 9.36810547 1.53515625 7.89453125 C1.0476265 5.25760028 0.53328895 2.6280095 0 0 Z " fill="#EF5B70" transform="translate(157,160)"/>
<path d="M0 0 C2.31 0 4.62 0 7 0 C7 0.99 7 1.98 7 3 C5.68 3 4.36 3 3 3 C3 3.99 3 4.98 3 6 C3.99 6 4.98 6 6 6 C6 7.32 6 8.64 6 10 C5.01 10 4.02 10 3 10 C3 10.99 3 11.98 3 13 C4.32 13 5.64 13 7 13 C7 13.99 7 14.98 7 16 C4.69 16 2.38 16 0 16 C0 10.72 0 5.44 0 0 Z " fill="#EF5B71" transform="translate(198,160)"/>
<path d="M0 0 C1.32 0 2.64 0 4 0 C4 4.29 4 8.58 4 13 C5.32 13 6.64 13 8 13 C8 13.99 8 14.98 8 16 C5.36 16 2.72 16 0 16 C0 10.72 0 5.44 0 0 Z " fill="#EF5B71" transform="translate(113,160)"/>
</svg>
